<?xml version="1.0" encoding="UTF-8" standalone="no"?>
<!DOCTYPE svg PUBLIC "-//W3C//DTD SVG 1.1//EN"
 "http://www.w3.org/Graphics/SVG/1.1/DTD/svg11.dtd">
<!-- Generated by graphviz version 2.43.0 (0)
 -->
<!-- Title: %3 Pages: 1 -->
<svg width="576pt" height="719pt"
 viewBox="0.00 0.00 576.00 719.29" xmlns="http://www.w3.org/2000/svg" xmlns:xlink="http://www.w3.org/1999/xlink">
<g id="graph0" class="graph" transform="scale(0.36 0.36) rotate(0) translate(4 2018)">
<title>%3</title>
<polygon fill="white" stroke="transparent" points="-4,4 -4,-2018 1615.2,-2018 1615.2,4 -4,4"/>
<g id="clust1" class="cluster">
<title>cluster_M1</title>
<path fill="lightgray" stroke="black" d="M132.95,-1743C132.95,-1743 1564.64,-1743 1564.64,-1743 1570.64,-1743 1576.64,-1749 1576.64,-1755 1576.64,-1755 1576.64,-1956 1576.64,-1956 1576.64,-1962 1570.64,-1968 1564.64,-1968 1564.64,-1968 132.95,-1968 132.95,-1968 126.95,-1968 120.95,-1962 120.95,-1956 120.95,-1956 120.95,-1755 120.95,-1755 120.95,-1749 126.95,-1743 132.95,-1743"/>
<text text-anchor="middle" x="848.8" y="-1952.8" font-family="Times,serif" font-size="14.00">Module 1: Cleaning &amp; Field Oxide Formation</text>
</g>
<g id="clust2" class="cluster">
<title>cluster_M2</title>
<path fill="lightgray" stroke="black" d="M180.46,-1366C180.46,-1366 1465.29,-1366 1465.29,-1366 1471.29,-1366 1477.29,-1372 1477.29,-1378 1477.29,-1378 1477.29,-1723 1477.29,-1723 1477.29,-1729 1471.29,-1735 1465.29,-1735 1465.29,-1735 180.46,-1735 180.46,-1735 174.46,-1735 168.46,-1729 168.46,-1723 168.46,-1723 168.46,-1378 168.46,-1378 168.46,-1372 174.46,-1366 180.46,-1366"/>
<text text-anchor="middle" x="822.88" y="-1719.8" font-family="Times,serif" font-size="14.00">Module 2: Photolithography &amp; Wet Etch</text>
</g>
<g id="clust3" class="cluster">
<title>cluster_M3</title>
<path fill="lightgray" stroke="black" d="M206.38,-985C206.38,-985 1331.39,-985 1331.39,-985 1337.39,-985 1343.39,-991 1343.39,-997 1343.39,-997 1343.39,-1346 1343.39,-1346 1343.39,-1352 1337.39,-1358 1331.39,-1358 1331.39,-1358 206.38,-1358 206.38,-1358 200.38,-1358 194.38,-1352 194.38,-1346 194.38,-1346 194.38,-997 194.38,-997 194.38,-991 200.38,-985 206.38,-985"/>
<text text-anchor="middle" x="768.88" y="-1342.8" font-family="Times,serif" font-size="14.00">Module 3: Pre&#45;Deposition Diffusion</text>
</g>
<g id="clust4" class="cluster">
<title>cluster_M4</title>
<path fill="lightgray" stroke="black" d="M227.98,-752C227.98,-752 1067.89,-752 1067.89,-752 1073.89,-752 1079.89,-758 1079.89,-764 1079.89,-764 1079.89,-965 1079.89,-965 1079.89,-971 1073.89,-977 1067.89,-977 1067.89,-977 227.98,-977 227.98,-977 221.98,-977 215.98,-971 215.98,-965 215.98,-965 215.98,-764 215.98,-764 215.98,-758 221.98,-752 227.98,-752"/>
<text text-anchor="middle" x="647.94" y="-961.8" font-family="Times,serif" font-size="14.00">Module 4: Gate Definition</text>
</g>
<g id="clust5" class="cluster">
<title>cluster_M5</title>
<path fill="lightgray" stroke="black" d="M46.56,-447C46.56,-447 1227.72,-447 1227.72,-447 1233.72,-447 1239.72,-453 1239.72,-459 1239.72,-459 1239.72,-732 1239.72,-732 1239.72,-738 1233.72,-744 1227.72,-744 1227.72,-744 46.56,-744 46.56,-744 40.56,-744 34.56,-738 34.56,-732 34.56,-732 34.56,-459 34.56,-459 34.56,-453 40.56,-447 46.56,-447"/>
<text text-anchor="middle" x="637.14" y="-728.8" font-family="Times,serif" font-size="14.00">Module 5: Gate Oxidation &amp; Drive&#45;In</text>
</g>
<g id="clust6" class="cluster">
<title>cluster_M6</title>
<path fill="lightgray" stroke="black" d="M215.02,-66C215.02,-66 1059.25,-66 1059.25,-66 1065.25,-66 1071.25,-72 1071.25,-78 1071.25,-78 1071.25,-427 1071.25,-427 1071.25,-433 1065.25,-439 1059.25,-439 1059.25,-439 215.02,-439 215.02,-439 209.02,-439 203.02,-433 203.02,-427 203.02,-427 203.02,-78 203.02,-78 203.02,-72 209.02,-66 215.02,-66"/>
<text text-anchor="middle" x="637.14" y="-423.8" font-family="Times,serif" font-size="14.00">Module 6: Metal Contacts</text>
</g>
<!-- Start -->
<g id="node1" class="node">
<title>Start</title>
<path fill="lightblue" stroke="black" d="M672.59,-2014C672.59,-2014 596.59,-2014 596.59,-2014 590.59,-2014 584.59,-2008 584.59,-2002 584.59,-2002 584.59,-1988 584.59,-1988 584.59,-1982 590.59,-1976 596.59,-1976 596.59,-1976 672.59,-1976 672.59,-1976 678.59,-1976 684.59,-1982 684.59,-1988 684.59,-1988 684.59,-2002 684.59,-2002 684.59,-2008 678.59,-2014 672.59,-2014"/>
<text text-anchor="middle" x="634.59" y="-1998.2" font-family="Helvetica,sans-Serif" font-size="11.00">Start:</text>
<text text-anchor="middle" x="634.59" y="-1986.2" font-family="Helvetica,sans-Serif" font-size="11.00">Silicon Wafer</text>
</g>
<!-- M1_clean -->
<g id="node2" class="node">
<title>M1_clean</title>
<path fill="lightblue" stroke="black" d="M714.59,-1937C714.59,-1937 554.59,-1937 554.59,-1937 548.59,-1937 542.59,-1931 542.59,-1925 542.59,-1925 542.59,-1911 542.59,-1911 542.59,-1905 548.59,-1899 554.59,-1899 554.59,-1899 714.59,-1899 714.59,-1899 720.59,-1899 726.59,-1905 726.59,-1911 726.59,-1911 726.59,-1925 726.59,-1925 726.59,-1931 720.59,-1937 714.59,-1937"/>
<text text-anchor="middle" x="634.59" y="-1921.2" font-family="Helvetica,sans-Serif" font-size="11.00">Solvent Cleaning</text>
<text text-anchor="middle" x="634.59" y="-1909.2" font-family="Helvetica,sans-Serif" font-size="11.00">(Acetone, IPA, Methanol, DI)</text>
</g>
<!-- Start&#45;&gt;M1_clean -->
<g id="edge20" class="edge">
<title>Start&#45;&gt;M1_clean</title>
<path fill="none" stroke="black" d="M634.59,-1975.84C634.59,-1967.34 634.59,-1957.01 634.59,-1947.5"/>
<polygon fill="black" stroke="black" points="638.09,-1947.25 634.59,-1937.25 631.09,-1947.25 638.09,-1947.25"/>
</g>
<!-- M1_oxide -->
<g id="node3" class="node">
<title>M1_oxide</title>
<path fill="lightblue" stroke="black" d="M698.59,-1863C698.59,-1863 570.59,-1863 570.59,-1863 564.59,-1863 558.59,-1857 558.59,-1851 558.59,-1851 558.59,-1837 558.59,-1837 558.59,-1831 564.59,-1825 570.59,-1825 570.59,-1825 698.59,-1825 698.59,-1825 704.59,-1825 710.59,-1831 710.59,-1837 710.59,-1837 710.59,-1851 710.59,-1851 710.59,-1857 704.59,-1863 698.59,-1863"/>
<text text-anchor="middle" x="634.59" y="-1847.2" font-family="Helvetica,sans-Serif" font-size="11.00">Native Oxide Removal</text>
<text text-anchor="middle" x="634.59" y="-1835.2" font-family="Helvetica,sans-Serif" font-size="11.00">(Piranha &amp; BOE)</text>
</g>
<!-- M1_clean&#45;&gt;M1_oxide -->
<g id="edge1" class="edge">
<title>M1_clean&#45;&gt;M1_oxide</title>
<path fill="none" stroke="black" d="M634.59,-1898.83C634.59,-1891.13 634.59,-1881.97 634.59,-1873.42"/>
<polygon fill="black" stroke="black" points="638.09,-1873.41 634.59,-1863.41 631.09,-1873.41 638.09,-1873.41"/>
</g>
<!-- M1_field -->
<g id="node4" class="node">
<title>M1_field</title>
<path fill="lightblue" stroke="black" d="M704.09,-1789C704.09,-1789 565.09,-1789 565.09,-1789 559.09,-1789 553.09,-1783 553.09,-1777 553.09,-1777 553.09,-1763 553.09,-1763 553.09,-1757 559.09,-1751 565.09,-1751 565.09,-1751 704.09,-1751 704.09,-1751 710.09,-1751 716.09,-1757 716.09,-1763 716.09,-1763 716.09,-1777 716.09,-1777 716.09,-1783 710.09,-1789 704.09,-1789"/>
<text text-anchor="middle" x="634.59" y="-1773.2" font-family="Helvetica,sans-Serif" font-size="11.00">Field Oxide Formation</text>
<text text-anchor="middle" x="634.59" y="-1761.2" font-family="Helvetica,sans-Serif" font-size="11.00">(Dry Thermal Oxidation)</text>
</g>
<!-- M1_oxide&#45;&gt;M1_field -->
<g id="edge2" class="edge">
<title>M1_oxide&#45;&gt;M1_field</title>
<path fill="none" stroke="black" d="M634.59,-1824.83C634.59,-1817.13 634.59,-1807.97 634.59,-1799.42"/>
<polygon fill="black" stroke="black" points="638.09,-1799.41 634.59,-1789.41 631.09,-1799.41 638.09,-1799.41"/>
</g>
<!-- M2_clean -->
<g id="node5" class="node">
<title>M2_clean</title>
<path fill="lightblue" stroke="black" d="M683.09,-1704C683.09,-1704 586.09,-1704 586.09,-1704 580.09,-1704 574.09,-1698 574.09,-1692 574.09,-1692 574.09,-1680 574.09,-1680 574.09,-1674 580.09,-1668 586.09,-1668 586.09,-1668 683.09,-1668 683.09,-1668 689.09,-1668 695.09,-1674 695.09,-1680 695.09,-1680 695.09,-1692 695.09,-1692 695.09,-1698 689.09,-1704 683.09,-1704"/>
<text text-anchor="middle" x="634.59" y="-1683.2" font-family="Helvetica,sans-Serif" font-size="11.00">Solvent Cleaning</text>
</g>
<!-- M1_field&#45;&gt;M2_clean -->
<g id="edge21" class="edge">
<title>M1_field&#45;&gt;M2_clean</title>
<path fill="none" stroke="black" d="M634.59,-1750.8C634.59,-1740 634.59,-1726.1 634.59,-1714.04"/>
<polygon fill="black" stroke="black" points="638.09,-1714.03 634.59,-1704.03 631.09,-1714.03 638.09,-1714.03"/>
</g>
<!-- M2_photo -->
<g id="node6" class="node">
<title>M2_photo</title>
<path fill="lightblue" stroke="black" d="M698.59,-1632C698.59,-1632 570.59,-1632 570.59,-1632 564.59,-1632 558.59,-1626 558.59,-1620 558.59,-1620 558.59,-1606 558.59,-1606 558.59,-1600 564.59,-1594 570.59,-1594 570.59,-1594 698.59,-1594 698.59,-1594 704.59,-1594 710.59,-1600 710.59,-1606 710.59,-1606 710.59,-1620 710.59,-1620 710.59,-1626 704.59,-1632 698.59,-1632"/>
<text text-anchor="middle" x="634.59" y="-1616.2" font-family="Helvetica,sans-Serif" font-size="11.00">Photolithography</text>
<text text-anchor="middle" x="634.59" y="-1604.2" font-family="Helvetica,sans-Serif" font-size="11.00">(Source&#45;Drain Pattern)</text>
</g>
<!-- M2_clean&#45;&gt;M2_photo -->
<g id="edge3" class="edge">
<title>M2_clean&#45;&gt;M2_photo</title>
<path fill="none" stroke="black" d="M634.59,-1667.81C634.59,-1660.11 634.59,-1650.82 634.59,-1642.15"/>
<polygon fill="black" stroke="black" points="638.09,-1642.02 634.59,-1632.02 631.09,-1642.02 638.09,-1642.02"/>
</g>
<!-- M2_develop -->
<g id="node7" class="node">
<title>M2_develop</title>
<path fill="lightblue" stroke="black" d="M716.09,-1558C716.09,-1558 553.09,-1558 553.09,-1558 547.09,-1558 541.09,-1552 541.09,-1546 541.09,-1546 541.09,-1532 541.09,-1532 541.09,-1526 547.09,-1520 553.09,-1520 553.09,-1520 716.09,-1520 716.09,-1520 722.09,-1520 728.09,-1526 728.09,-1532 728.09,-1532 728.09,-1546 728.09,-1546 728.09,-1552 722.09,-1558 716.09,-1558"/>
<text text-anchor="middle" x="634.59" y="-1542.2" font-family="Helvetica,sans-Serif" font-size="11.00">Development</text>
<text text-anchor="middle" x="634.59" y="-1530.2" font-family="Helvetica,sans-Serif" font-size="11.00">(Expose Source&#45;Drain Areas)</text>
</g>
<!-- M2_photo&#45;&gt;M2_develop -->
<g id="edge4" class="edge">
<title>M2_photo&#45;&gt;M2_develop</title>
<path fill="none" stroke="black" d="M634.59,-1593.83C634.59,-1586.13 634.59,-1576.97 634.59,-1568.42"/>
<polygon fill="black" stroke="black" points="638.09,-1568.41 634.59,-1558.41 631.09,-1568.41 638.09,-1568.41"/>
</g>
<!-- M2_descum -->
<g id="node8" class="node">
<title>M2_descum</title>
<path fill="lightblue" stroke="black" d="M689.59,-1484C689.59,-1484 579.59,-1484 579.59,-1484 573.59,-1484 567.59,-1478 567.59,-1472 567.59,-1472 567.59,-1460 567.59,-1460 567.59,-1454 573.59,-1448 579.59,-1448 579.59,-1448 689.59,-1448 689.59,-1448 695.59,-1448 701.59,-1454 701.59,-1460 701.59,-1460 701.59,-1472 701.59,-1472 701.59,-1478 695.59,-1484 689.59,-1484"/>
<text text-anchor="middle" x="634.59" y="-1463.2" font-family="Helvetica,sans-Serif" font-size="11.00">O₂ Plasma Descum</text>
</g>
<!-- M2_develop&#45;&gt;M2_descum -->
<g id="edge5" class="edge">
<title>M2_develop&#45;&gt;M2_descum</title>
<path fill="none" stroke="black" d="M634.59,-1519.72C634.59,-1511.97 634.59,-1502.79 634.59,-1494.27"/>
<polygon fill="black" stroke="black" points="638.09,-1494 634.59,-1484 631.09,-1494 638.09,-1494"/>
</g>
<!-- M2_etch -->
<g id="node9" class="node">
<title>M2_etch</title>
<path fill="lightblue" stroke="black" d="M704.59,-1412C704.59,-1412 564.59,-1412 564.59,-1412 558.59,-1412 552.59,-1406 552.59,-1400 552.59,-1400 552.59,-1386 552.59,-1386 552.59,-1380 558.59,-1374 564.59,-1374 564.59,-1374 704.59,-1374 704.59,-1374 710.59,-1374 716.59,-1380 716.59,-1386 716.59,-1386 716.59,-1400 716.59,-1400 716.59,-1406 710.59,-1412 704.59,-1412"/>
<text text-anchor="middle" x="634.59" y="-1396.2" font-family="Helvetica,sans-Serif" font-size="11.00">Field Oxide Removal</text>
<text text-anchor="middle" x="634.59" y="-1384.2" font-family="Helvetica,sans-Serif" font-size="11.00">from Source&#45;Drain Areas</text>
</g>
<!-- M2_descum&#45;&gt;M2_etch -->
<g id="edge6" class="edge">
<title>M2_descum&#45;&gt;M2_etch</title>
<path fill="none" stroke="black" d="M634.59,-1447.81C634.59,-1440.11 634.59,-1430.82 634.59,-1422.15"/>
<polygon fill="black" stroke="black" points="638.09,-1422.02 634.59,-1412.02 631.09,-1422.02 638.09,-1422.02"/>
</g>
<!-- M3_oxide -->
<g id="node10" class="node">
<title>M3_oxide</title>
<path fill="lightblue" stroke="black" d="M698.59,-1327C698.59,-1327 570.59,-1327 570.59,-1327 564.59,-1327 558.59,-1321 558.59,-1315 558.59,-1315 558.59,-1301 558.59,-1301 558.59,-1295 564.59,-1289 570.59,-1289 570.59,-1289 698.59,-1289 698.59,-1289 704.59,-1289 710.59,-1295 710.59,-1301 710.59,-1301 710.59,-1315 710.59,-1315 710.59,-1321 704.59,-1327 698.59,-1327"/>
<text text-anchor="middle" x="634.59" y="-1311.2" font-family="Helvetica,sans-Serif" font-size="11.00">Native Oxide Removal</text>
<text text-anchor="middle" x="634.59" y="-1299.2" font-family="Helvetica,sans-Serif" font-size="11.00">(BOE)</text>
</g>
<!-- M2_etch&#45;&gt;M3_oxide -->
<g id="edge22" class="edge">
<title>M2_etch&#45;&gt;M3_oxide</title>
<path fill="none" stroke="black" d="M634.59,-1373.99C634.59,-1363.3 634.59,-1349.5 634.59,-1337.37"/>
<polygon fill="black" stroke="black" points="638.09,-1337.26 634.59,-1327.26 631.09,-1337.26 638.09,-1337.26"/>
</g>
<!-- M3_psg -->
<g id="node11" class="node">
<title>M3_psg</title>
<path fill="lightblue" stroke="black" d="M680.09,-1253C680.09,-1253 589.09,-1253 589.09,-1253 583.09,-1253 577.09,-1247 577.09,-1241 577.09,-1241 577.09,-1227 577.09,-1227 577.09,-1221 583.09,-1215 589.09,-1215 589.09,-1215 680.09,-1215 680.09,-1215 686.09,-1215 692.09,-1221 692.09,-1227 692.09,-1227 692.09,-1241 692.09,-1241 692.09,-1247 686.09,-1253 680.09,-1253"/>
<text text-anchor="middle" x="634.59" y="-1237.2" font-family="Helvetica,sans-Serif" font-size="11.00">PSG Application</text>
<text text-anchor="middle" x="634.59" y="-1225.2" font-family="Helvetica,sans-Serif" font-size="11.00">(Spin Coating)</text>
</g>
<!-- M3_oxide&#45;&gt;M3_psg -->
<g id="edge7" class="edge">
<title>M3_oxide&#45;&gt;M3_psg</title>
<path fill="none" stroke="black" d="M634.59,-1288.83C634.59,-1281.13 634.59,-1271.97 634.59,-1263.42"/>
<polygon fill="black" stroke="black" points="638.09,-1263.41 634.59,-1253.41 631.09,-1263.41 638.09,-1263.41"/>
</g>
<!-- M3_bake -->
<g id="node12" class="node">
<title>M3_bake</title>
<path fill="lightblue" stroke="black" d="M680.59,-1179C680.59,-1179 588.59,-1179 588.59,-1179 582.59,-1179 576.59,-1173 576.59,-1167 576.59,-1167 576.59,-1153 576.59,-1153 576.59,-1147 582.59,-1141 588.59,-1141 588.59,-1141 680.59,-1141 680.59,-1141 686.59,-1141 692.59,-1147 692.59,-1153 692.59,-1153 692.59,-1167 692.59,-1167 692.59,-1173 686.59,-1179 680.59,-1179"/>
<text text-anchor="middle" x="634.59" y="-1163.2" font-family="Helvetica,sans-Serif" font-size="11.00">Hard Bake</text>
<text text-anchor="middle" x="634.59" y="-1151.2" font-family="Helvetica,sans-Serif" font-size="11.00">(200°C, 30 min)</text>
</g>
<!-- M3_psg&#45;&gt;M3_bake -->
<g id="edge8" class="edge">
<title>M3_psg&#45;&gt;M3_bake</title>
<path fill="none" stroke="black" d="M634.59,-1214.83C634.59,-1207.13 634.59,-1197.97 634.59,-1189.42"/>
<polygon fill="black" stroke="black" points="638.09,-1189.41 634.59,-1179.41 631.09,-1189.41 638.09,-1189.41"/>
</g>
<!-- M3_diff -->
<g id="node13" class="node">
<title>M3_diff</title>
<path fill="lightblue" stroke="black" d="M703.09,-1105C703.09,-1105 566.09,-1105 566.09,-1105 560.09,-1105 554.09,-1099 554.09,-1093 554.09,-1093 554.09,-1079 554.09,-1079 554.09,-1073 560.09,-1067 566.09,-1067 566.09,-1067 703.09,-1067 703.09,-1067 709.09,-1067 715.09,-1073 715.09,-1079 715.09,-1079 715.09,-1093 715.09,-1093 715.09,-1099 709.09,-1105 703.09,-1105"/>
<text text-anchor="middle" x="634.59" y="-1089.2" font-family="Helvetica,sans-Serif" font-size="11.00">Pre&#45;Deposition Diffusion</text>
<text text-anchor="middle" x="634.59" y="-1077.2" font-family="Helvetica,sans-Serif" font-size="11.00">(Phosphorous)</text>
</g>
<!-- M3_bake&#45;&gt;M3_diff -->
<g id="edge9" class="edge">
<title>M3_bake&#45;&gt;M3_diff</title>
<path fill="none" stroke="black" d="M634.59,-1140.83C634.59,-1133.13 634.59,-1123.97 634.59,-1115.42"/>
<polygon fill="black" stroke="black" points="638.09,-1115.41 634.59,-1105.41 631.09,-1115.41 638.09,-1115.41"/>
</g>
<!-- M3_remove -->
<g id="node14" class="node">
<title>M3_remove</title>
<path fill="lightblue" stroke="black" d="M673.59,-1031C673.59,-1031 595.59,-1031 595.59,-1031 589.59,-1031 583.59,-1025 583.59,-1019 583.59,-1019 583.59,-1005 583.59,-1005 583.59,-999 589.59,-993 595.59,-993 595.59,-993 673.59,-993 673.59,-993 679.59,-993 685.59,-999 685.59,-1005 685.59,-1005 685.59,-1019 685.59,-1019 685.59,-1025 679.59,-1031 673.59,-1031"/>
<text text-anchor="middle" x="634.59" y="-1015.2" font-family="Helvetica,sans-Serif" font-size="11.00">PSG Removal</text>
<text text-anchor="middle" x="634.59" y="-1003.2" font-family="Helvetica,sans-Serif" font-size="11.00">(BOE)</text>
</g>
<!-- M3_diff&#45;&gt;M3_remove -->
<g id="edge10" class="edge">
<title>M3_diff&#45;&gt;M3_remove</title>
<path fill="none" stroke="black" d="M634.59,-1066.83C634.59,-1059.13 634.59,-1049.97 634.59,-1041.42"/>
<polygon fill="black" stroke="black" points="638.09,-1041.41 634.59,-1031.41 631.09,-1041.41 638.09,-1041.41"/>
</g>
<!-- M4_photo -->
<g id="node15" class="node">
<title>M4_photo</title>
<path fill="lightblue" stroke="black" d="M683.59,-946C683.59,-946 585.59,-946 585.59,-946 579.59,-946 573.59,-940 573.59,-934 573.59,-934 573.59,-920 573.59,-920 573.59,-914 579.59,-908 585.59,-908 585.59,-908 683.59,-908 683.59,-908 689.59,-908 695.59,-914 695.59,-920 695.59,-920 695.59,-934 695.59,-934 695.59,-940 689.59,-946 683.59,-946"/>
<text text-anchor="middle" x="634.59" y="-930.2" font-family="Helvetica,sans-Serif" font-size="11.00">Photolithography</text>
<text text-anchor="middle" x="634.59" y="-918.2" font-family="Helvetica,sans-Serif" font-size="11.00">(Gate Pattern)</text>
</g>
<!-- M3_remove&#45;&gt;M4_photo -->
<g id="edge23" class="edge">
<title>M3_remove&#45;&gt;M4_photo</title>
<path fill="none" stroke="black" d="M634.59,-992.99C634.59,-982.3 634.59,-968.5 634.59,-956.37"/>
<polygon fill="black" stroke="black" points="638.09,-956.26 634.59,-946.26 631.09,-956.26 638.09,-956.26"/>
</g>
<!-- M4_develop -->
<g id="node16" class="node">
<title>M4_develop</title>
<path fill="lightblue" stroke="black" d="M691.09,-872C691.09,-872 578.09,-872 578.09,-872 572.09,-872 566.09,-866 566.09,-860 566.09,-860 566.09,-846 566.09,-846 566.09,-840 572.09,-834 578.09,-834 578.09,-834 691.09,-834 691.09,-834 697.09,-834 703.09,-840 703.09,-846 703.09,-846 703.09,-860 703.09,-860 703.09,-866 697.09,-872 691.09,-872"/>
<text text-anchor="middle" x="634.59" y="-856.2" font-family="Helvetica,sans-Serif" font-size="11.00">Development</text>
<text text-anchor="middle" x="634.59" y="-844.2" font-family="Helvetica,sans-Serif" font-size="11.00">(Expose Gate Area)</text>
</g>
<!-- M4_photo&#45;&gt;M4_develop -->
<g id="edge11" class="edge">
<title>M4_photo&#45;&gt;M4_develop</title>
<path fill="none" stroke="black" d="M634.59,-907.83C634.59,-900.13 634.59,-890.97 634.59,-882.42"/>
<polygon fill="black" stroke="black" points="638.09,-882.41 634.59,-872.41 631.09,-882.41 638.09,-882.41"/>
</g>
<!-- M4_etch -->
<g id="node17" class="node">
<title>M4_etch</title>
<path fill="lightblue" stroke="black" d="M693.09,-798C693.09,-798 576.09,-798 576.09,-798 570.09,-798 564.09,-792 564.09,-786 564.09,-786 564.09,-772 564.09,-772 564.09,-766 570.09,-760 576.09,-760 576.09,-760 693.09,-760 693.09,-760 699.09,-760 705.09,-766 705.09,-772 705.09,-772 705.09,-786 705.09,-786 705.09,-792 699.09,-798 693.09,-798"/>
<text text-anchor="middle" x="634.59" y="-782.2" font-family="Helvetica,sans-Serif" font-size="11.00">Field Oxide Removal</text>
<text text-anchor="middle" x="634.59" y="-770.2" font-family="Helvetica,sans-Serif" font-size="11.00">from Gate Area</text>
</g>
<!-- M4_develop&#45;&gt;M4_etch -->
<g id="edge12" class="edge">
<title>M4_develop&#45;&gt;M4_etch</title>
<path fill="none" stroke="black" d="M634.59,-833.83C634.59,-826.13 634.59,-816.97 634.59,-808.42"/>
<polygon fill="black" stroke="black" points="638.09,-808.41 634.59,-798.41 631.09,-808.41 638.09,-808.41"/>
</g>
<!-- M5_clean -->
<g id="node18" class="node">
<title>M5_clean</title>
<path fill="lightblue" stroke="black" d="M683.09,-713C683.09,-713 586.09,-713 586.09,-713 580.09,-713 574.09,-707 574.09,-701 574.09,-701 574.09,-689 574.09,-689 574.09,-683 580.09,-677 586.09,-677 586.09,-677 683.09,-677 683.09,-677 689.09,-677 695.09,-683 695.09,-689 695.09,-689 695.09,-701 695.09,-701 695.09,-707 689.09,-713 683.09,-713"/>
<text text-anchor="middle" x="634.59" y="-692.2" font-family="Helvetica,sans-Serif" font-size="11.00">Solvent Cleaning</text>
</g>
<!-- M4_etch&#45;&gt;M5_clean -->
<g id="edge24" class="edge">
<title>M4_etch&#45;&gt;M5_clean</title>
<path fill="none" stroke="black" d="M634.59,-759.8C634.59,-749 634.59,-735.1 634.59,-723.04"/>
<polygon fill="black" stroke="black" points="638.09,-723.03 634.59,-713.03 631.09,-723.03 638.09,-723.03"/>
</g>
<!-- M5_ox_diff -->
<g id="node19" class="node">
<title>M5_ox_diff</title>
<path fill="lightblue" stroke="black" d="M729.59,-641C729.59,-641 539.59,-641 539.59,-641 533.59,-641 527.59,-635 527.59,-629 527.59,-629 527.59,-615 527.59,-615 527.59,-609 533.59,-603 539.59,-603 539.59,-603 729.59,-603 729.59,-603 735.59,-603 741.59,-609 741.59,-615 741.59,-615 741.59,-629 741.59,-629 741.59,-635 735.59,-641 729.59,-641"/>
<text text-anchor="middle" x="634.59" y="-625.2" font-family="Helvetica,sans-Serif" font-size="11.00">Gate Oxidation &amp; Dopant Drive&#45;In</text>
<text text-anchor="middle" x="634.59" y="-613.2" font-family="Helvetica,sans-Serif" font-size="11.00">(1100°C, 35 min, N₂)</text>
</g>
<!-- M5_clean&#45;&gt;M5_ox_diff -->
<g id="edge13" class="edge">
<title>M5_clean&#45;&gt;M5_ox_diff</title>
<path fill="none" stroke="black" d="M634.59,-676.81C634.59,-669.11 634.59,-659.82 634.59,-651.15"/>
<polygon fill="black" stroke="black" points="638.09,-651.02 634.59,-641.02 631.09,-651.02 638.09,-651.02"/>
</g>
<!-- M5_photo -->
<g id="node20" class="node">
<title>M5_photo</title>
<path fill="lightblue" stroke="black" d="M717.59,-567C717.59,-567 551.59,-567 551.59,-567 545.59,-567 539.59,-561 539.59,-555 539.59,-555 539.59,-541 539.59,-541 539.59,-535 545.59,-529 551.59,-529 551.59,-529 717.59,-529 717.59,-529 723.59,-529 729.59,-535 729.59,-541 729.59,-541 729.59,-555 729.59,-555 729.59,-561 723.59,-567 717.59,-567"/>
<text text-anchor="middle" x="634.59" y="-551.2" font-family="Helvetica,sans-Serif" font-size="11.00">Photolithography</text>
<text text-anchor="middle" x="634.59" y="-539.2" font-family="Helvetica,sans-Serif" font-size="11.00">(Source&#45;Drain Contact Areas)</text>
</g>
<!-- M5_ox_diff&#45;&gt;M5_photo -->
<g id="edge14" class="edge">
<title>M5_ox_diff&#45;&gt;M5_photo</title>
<path fill="none" stroke="black" d="M634.59,-602.83C634.59,-595.13 634.59,-585.97 634.59,-577.42"/>
<polygon fill="black" stroke="black" points="638.09,-577.41 634.59,-567.41 631.09,-577.41 638.09,-577.41"/>
</g>
<!-- M5_etch -->
<g id="node21" class="node">
<title>M5_etch</title>
<path fill="lightblue" stroke="black" d="M704.59,-493C704.59,-493 564.59,-493 564.59,-493 558.59,-493 552.59,-487 552.59,-481 552.59,-481 552.59,-467 552.59,-467 552.59,-461 558.59,-455 564.59,-455 564.59,-455 704.59,-455 704.59,-455 710.59,-455 716.59,-461 716.59,-467 716.59,-467 716.59,-481 716.59,-481 716.59,-487 710.59,-493 704.59,-493"/>
<text text-anchor="middle" x="634.59" y="-477.2" font-family="Helvetica,sans-Serif" font-size="11.00">Oxide Removal from S&#45;D</text>
<text text-anchor="middle" x="634.59" y="-465.2" font-family="Helvetica,sans-Serif" font-size="11.00">(BOE, 8&#45;13 min)</text>
</g>
<!-- M5_photo&#45;&gt;M5_etch -->
<g id="edge15" class="edge">
<title>M5_photo&#45;&gt;M5_etch</title>
<path fill="none" stroke="black" d="M634.59,-528.83C634.59,-521.13 634.59,-511.97 634.59,-503.42"/>
<polygon fill="black" stroke="black" points="638.09,-503.41 634.59,-493.41 631.09,-503.41 638.09,-503.41"/>
</g>
<!-- M6_photo -->
<g id="node22" class="node">
<title>M6_photo</title>
<path fill="lightblue" stroke="black" d="M684.59,-408C684.59,-408 584.59,-408 584.59,-408 578.59,-408 572.59,-402 572.59,-396 572.59,-396 572.59,-382 572.59,-382 572.59,-376 578.59,-370 584.59,-370 584.59,-370 684.59,-370 684.59,-370 690.59,-370 696.59,-376 696.59,-382 696.59,-382 696.59,-396 696.59,-396 696.59,-402 690.59,-408 684.59,-408"/>
<text text-anchor="middle" x="634.59" y="-392.2" font-family="Helvetica,sans-Serif" font-size="11.00">Photolithography</text>
<text text-anchor="middle" x="634.59" y="-380.2" font-family="Helvetica,sans-Serif" font-size="11.00">(Contact Pattern)</text>
</g>
<!-- M5_etch&#45;&gt;M6_photo -->
<g id="edge25" class="edge">
<title>M5_etch&#45;&gt;M6_photo</title>
<path fill="none" stroke="black" d="M634.59,-454.99C634.59,-444.3 634.59,-430.5 634.59,-418.37"/>
<polygon fill="black" stroke="black" points="638.09,-418.26 634.59,-408.26 631.09,-418.26 638.09,-418.26"/>
</g>
<!-- M6_etch -->
<g id="node23" class="node">
<title>M6_etch</title>
<path fill="lightblue" stroke="black" d="M679.09,-334C679.09,-334 590.09,-334 590.09,-334 584.09,-334 578.09,-328 578.09,-322 578.09,-322 578.09,-308 578.09,-308 578.09,-302 584.09,-296 590.09,-296 590.09,-296 679.09,-296 679.09,-296 685.09,-296 691.09,-302 691.09,-308 691.09,-308 691.09,-322 691.09,-322 691.09,-328 685.09,-334 679.09,-334"/>
<text text-anchor="middle" x="634.59" y="-318.2" font-family="Helvetica,sans-Serif" font-size="11.00">Oxide Removal</text>
<text text-anchor="middle" x="634.59" y="-306.2" font-family="Helvetica,sans-Serif" font-size="11.00">for Contacts</text>
</g>
<!-- M6_photo&#45;&gt;M6_etch -->
<g id="edge16" class="edge">
<title>M6_photo&#45;&gt;M6_etch</title>
<path fill="none" stroke="black" d="M634.59,-369.83C634.59,-362.13 634.59,-352.97 634.59,-344.42"/>
<polygon fill="black" stroke="black" points="638.09,-344.41 634.59,-334.41 631.09,-344.41 638.09,-344.41"/>
</g>
<!-- M6_al -->
<g id="node24" class="node">
<title>M6_al</title>
<path fill="lightblue" stroke="black" d="M697.09,-260C697.09,-260 572.09,-260 572.09,-260 566.09,-260 560.09,-254 560.09,-248 560.09,-248 560.09,-234 560.09,-234 560.09,-228 566.09,-222 572.09,-222 572.09,-222 697.09,-222 697.09,-222 703.09,-222 709.09,-228 709.09,-234 709.09,-234 709.09,-248 709.09,-248 709.09,-254 703.09,-260 697.09,-260"/>
<text text-anchor="middle" x="634.59" y="-244.2" font-family="Helvetica,sans-Serif" font-size="11.00">Aluminum Deposition</text>
<text text-anchor="middle" x="634.59" y="-232.2" font-family="Helvetica,sans-Serif" font-size="11.00">(E&#45;Beam Evaporation)</text>
</g>
<!-- M6_etch&#45;&gt;M6_al -->
<g id="edge17" class="edge">
<title>M6_etch&#45;&gt;M6_al</title>
<path fill="none" stroke="black" d="M634.59,-295.83C634.59,-288.13 634.59,-278.97 634.59,-270.42"/>
<polygon fill="black" stroke="black" points="638.09,-270.41 634.59,-260.41 631.09,-270.41 638.09,-270.41"/>
</g>
<!-- M6_lift -->
<g id="node25" class="node">
<title>M6_lift</title>
<path fill="lightblue" stroke="black" d="M695.09,-186C695.09,-186 574.09,-186 574.09,-186 568.09,-186 562.09,-180 562.09,-174 562.09,-174 562.09,-160 562.09,-160 562.09,-154 568.09,-148 574.09,-148 574.09,-148 695.09,-148 695.09,-148 701.09,-148 707.09,-154 707.09,-160 707.09,-160 707.09,-174 707.09,-174 707.09,-180 701.09,-186 695.09,-186"/>
<text text-anchor="middle" x="634.59" y="-170.2" font-family="Helvetica,sans-Serif" font-size="11.00">Lift&#45;Off</text>
<text text-anchor="middle" x="634.59" y="-158.2" font-family="Helvetica,sans-Serif" font-size="11.00">(Acetone Soak, 24hr)</text>
</g>
<!-- M6_al&#45;&gt;M6_lift -->
<g id="edge18" class="edge">
<title>M6_al&#45;&gt;M6_lift</title>
<path fill="none" stroke="black" d="M634.59,-221.83C634.59,-214.13 634.59,-204.97 634.59,-196.42"/>
<polygon fill="black" stroke="black" points="638.09,-196.41 634.59,-186.41 631.09,-196.41 638.09,-196.41"/>
</g>
<!-- M6_anneal -->
<g id="node26" class="node">
<title>M6_anneal</title>
<path fill="lightblue" stroke="black" d="M690.59,-112C690.59,-112 578.59,-112 578.59,-112 572.59,-112 566.59,-106 566.59,-100 566.59,-100 566.59,-86 566.59,-86 566.59,-80 572.59,-74 578.59,-74 578.59,-74 690.59,-74 690.59,-74 696.59,-74 702.59,-80 702.59,-86 702.59,-86 702.59,-100 702.59,-100 702.59,-106 696.59,-112 690.59,-112"/>
<text text-anchor="middle" x="634.59" y="-96.2" font-family="Helvetica,sans-Serif" font-size="11.00">Contact Anneal</text>
<text text-anchor="middle" x="634.59" y="-84.2" font-family="Helvetica,sans-Serif" font-size="11.00">(450°C, 30 min, N₂)</text>
</g>
<!-- M6_lift&#45;&gt;M6_anneal -->
<g id="edge19" class="edge">
<title>M6_lift&#45;&gt;M6_anneal</title>
<path fill="none" stroke="black" d="M634.59,-147.83C634.59,-140.13 634.59,-130.97 634.59,-122.42"/>
<polygon fill="black" stroke="black" points="638.09,-122.41 634.59,-112.41 631.09,-122.41 638.09,-122.41"/>
</g>
<!-- End -->
<g id="node27" class="node">
<title>End</title>
<path fill="lightgreen" stroke="black" d="M709.09,-38C709.09,-38 560.09,-38 560.09,-38 554.09,-38 548.09,-32 548.09,-26 548.09,-26 548.09,-12 548.09,-12 548.09,-6 554.09,0 560.09,0 560.09,0 709.09,0 709.09,0 715.09,0 721.09,-6 721.09,-12 721.09,-12 721.09,-26 721.09,-26 721.09,-32 715.09,-38 709.09,-38"/>
<text text-anchor="middle" x="634.59" y="-22.2" font-family="Helvetica,sans-Serif" font-size="11.00">End:</text>
<text text-anchor="middle" x="634.59" y="-10.2" font-family="Helvetica,sans-Serif" font-size="11.00">Finished n&#45;MOSFET Device</text>
</g>
<!-- M6_anneal&#45;&gt;End -->
<g id="edge26" class="edge">
<title>M6_anneal&#45;&gt;End</title>
<path fill="none" stroke="black" d="M634.59,-73.83C634.59,-66.13 634.59,-56.97 634.59,-48.42"/>
<polygon fill="black" stroke="black" points="638.09,-48.41 634.59,-38.41 631.09,-48.41 638.09,-48.41"/>
</g>
</g>
</svg>
